<?xml version="1.0" encoding="utf-8"?><svg xmlns="http://www.w3.org/2000/svg" xmlns:xlink="http://www.w3.org/1999/xlink"><symbol viewBox="0 0 16 16" id="pass-hidden" xmlns="http://www.w3.org/2000/svg"><path d="M8 4.667A3.335 3.335 0 0111.333 8c0 .433-.086.84-.24 1.22l1.947 1.947A7.878 7.878 0 0015.327 8c-1.154-2.927-4-5-7.334-5-.933 0-1.826.167-2.653.467l1.44 1.44c.38-.154.787-.24 1.22-.24zm-6.667-1.82l1.52 1.52.307.306A7.87 7.87 0 00.667 8c1.153 2.927 4 5 7.333 5 1.033 0 2.02-.2 2.92-.56l.28.28 1.953 1.947.847-.847L2.18 2l-.847.847zM5.02 6.533l1.033 1.034A1.88 1.88 0 006 8c0 1.107.893 2 2 2 .147 0 .293-.02.433-.053l1.034 1.033c-.447.22-.94.353-1.467.353A3.335 3.335 0 014.667 8c0-.527.133-1.02.353-1.467zm2.873-.52l2.1 2.1.014-.106c0-1.107-.894-2-2-2l-.114.006z"/></symbol><symbol viewBox="0 0 16 16" id="pass-visible" xmlns="http://www.w3.org/2000/svg"><path d="M8 3C4.667 3 1.82 5.073.667 8c1.153 2.927 4 5 7.333 5s6.18-2.073 7.333-5c-1.153-2.927-4-5-7.333-5zm0 8.333a3.335 3.335 0 010-6.666 3.335 3.335 0 010 6.666zM8 6c-1.107 0-2 .893-2 2s.893 2 2 2 2-.893 2-2-.893-2-2-2z"/></symbol></svg>